<svg width="1200" height="720" viewBox="0 0 1200 720" fill="none" xmlns="http://www.w3.org/2000/svg">
  <rect width="1200" height="720" rx="28" fill="#070B09"/>
  <rect x="36" y="36" width="1128" height="648" rx="24" fill="#0A110D" stroke="#1A2A20"/>
  <rect x="72" y="76" width="220" height="34" rx="17" fill="#0E1713" stroke="#284433"/>
  <text x="102" y="99" fill="#7CFFB2" font-family="Segoe UI, Arial, sans-serif" font-size="18" font-weight="600">PROJECT PREVIEW</text>
  <text x="72" y="176" fill="#F2FFF7" font-family="Segoe UI, Arial, sans-serif" font-size="52" font-weight="700">VaultaIQ</text>
  <text x="72" y="224" fill="#A6C2B2" font-family="Segoe UI, Arial, sans-serif" font-size="28">AI Expense Intelligence Platform</text>
  <rect x="72" y="278" width="1056" height="330" rx="22" fill="url(#paint0_linear)" stroke="#214032"/>
  <rect x="124" y="334" width="240" height="218" rx="20" fill="#0A1310" stroke="#214032"/>
  <path d="M424 372H1012" stroke="#2F4F3E" stroke-width="18" stroke-linecap="round"/>
  <path d="M424 438H952" stroke="#223A2D" stroke-width="18" stroke-linecap="round"/>
  <path d="M424 504H874" stroke="#223A2D" stroke-width="18" stroke-linecap="round"/>
  <rect x="152" y="372" width="72" height="120" rx="14" fill="#7CFFB2" fill-opacity="0.28"/>
  <rect x="236" y="420" width="72" height="72" rx="14" fill="#1B3528"/>
  <rect x="72" y="628" width="204" height="24" rx="12" fill="#153424"/>
  <rect x="292" y="628" width="220" height="24" rx="12" fill="#11281D"/>
  <rect x="528" y="628" width="170" height="24" rx="12" fill="#11281D"/>
  <defs>
    <linearGradient id="paint0_linear" x1="72" y1="278" x2="1128" y2="608" gradientUnits="userSpaceOnUse">
      <stop stop-color="#0B1410"/>
      <stop offset="1" stop-color="#0D1B15"/>
    </linearGradient>
  </defs>
</svg>
